<?xml version="1.0" encoding="UTF-8" standalone="no" ?>
<!DOCTYPE svg PUBLIC "-//W3C//DTD SVG 1.1//EN" "http://www.w3.org/Graphics/SVG/1.1/DTD/svg11.dtd">
<svg xmlns="http://www.w3.org/2000/svg" xmlns:xlink="http://www.w3.org/1999/xlink" version="1.1" width="37" height="40" viewBox="0 0 37 40" xml:space="preserve">
<desc>Created with Fabric.js 5.2.4</desc>
<defs>
</defs>
<g transform="matrix(1 0 0 1 18.5 20)" id="03775d13-cae9-4c84-872e-611a3cb0735c"  >
<rect style="stroke: none; stroke-width: 1; stroke-dasharray: none; stroke-linecap: butt; stroke-dashoffset: 0; stroke-linejoin: miter; stroke-miterlimit: 4; fill: rgb(255,255,255); fill-rule: nonzero; opacity: 1; visibility: hidden;" vector-effect="non-scaling-stroke"  x="-18.5" y="-20" rx="0" ry="0" width="37" height="40" />
</g>
<g transform="matrix(Infinity NaN NaN Infinity 0 0)" id="aa0dcc6e-42de-4cd9-9e67-b3fff64df1f0"  >
</g>
<g transform="matrix(0.66 0 0 0.66 -225.06 -491.27)"  >
<g style=""   >
		<g transform="matrix(1 0 0 1 -0.06 -0.07)"  >
<linearGradient id="SVGID_paint0_linear_3" gradientUnits="userSpaceOnUse" gradientTransform="matrix(1 0 0 1 0 0)"  x1="0.671" y1="64.319" x2="55.2" y2="64.319">
<stop offset="0%" style="stop-color:rgb(255,85,0);stop-opacity: 1"/>
<stop offset="41%" style="stop-color:rgb(255,85,0);stop-opacity: 1"/>
<stop offset="58.199999999999996%" style="stop-color:rgb(255,32,0);stop-opacity: 1"/>
<stop offset="100%" style="stop-color:rgb(255,32,0);stop-opacity: 1"/>
</linearGradient>
<path style="stroke: none; stroke-width: 1; stroke-dasharray: none; stroke-linecap: butt; stroke-dashoffset: 0; stroke-linejoin: miter; stroke-miterlimit: 4; fill: url(#SVGID_paint0_linear_3); fill-rule: evenodd; opacity: 1;" vector-effect="non-scaling-stroke"  transform=" translate(-27.94, -31.93)" d="M 53.292 15.321 L 54.792 11.645 C 54.792 11.645 52.883 9.602 50.565 7.287 C 48.248 4.9719999999999995 43.339999999999996 6.334 43.339999999999996 6.334 L 37.751 0 L 18.12 0 L 12.531 6.334 C 12.531 6.334 7.623 4.9719999999999995 5.306000000000001 7.287 C 2.988 9.602 1.08 11.645 1.08 11.645 L 2.58 15.321 L 0.6700000000000002 20.768 C 0.6700000000000002 20.768 6.284 42.004000000000005 6.942 44.598 C 8.237 49.704 9.123000000000001 51.678 12.804 54.266 C 16.484 56.853 23.164 61.346 24.253999999999998 62.028 C 25.345 62.708 26.708999999999996 63.868 27.935999999999996 63.868 C 29.162999999999997 63.868 30.525999999999996 62.708000000000006 31.615999999999996 62.028 C 32.706999999999994 61.347 39.385999999999996 56.853 43.068 54.266 C 46.748 51.678999999999995 47.635 49.704 48.93 44.598 C 49.587 42.004 55.2 20.768 55.2 20.768 L 53.292 15.321000000000002 z" stroke-linecap="round" />
</g>
		<g transform="matrix(1 0 0 1 -0.06 -1.71)"  >
<path style="stroke: none; stroke-width: 1; stroke-dasharray: none; stroke-linecap: butt; stroke-dashoffset: 0; stroke-linejoin: miter; stroke-miterlimit: 4; fill: rgb(255,255,255); fill-rule: evenodd; opacity: 1;" vector-effect="non-scaling-stroke"  transform=" translate(-27.94, -30.29)" d="M 34.888 11.508 C 35.705999999999996 11.508 41.772999999999996 10.350999999999999 41.772999999999996 10.350999999999999 C 41.772999999999996 10.350999999999999 48.961999999999996 19.031 48.961999999999996 20.887 C 48.961999999999996 22.421 48.342999999999996 23.021 47.614999999999995 23.729 C 47.462999999999994 23.877 47.30499999999999 24.029 47.147999999999996 24.197 L 41.757999999999996 29.913999999999998 C 41.7001377266573 29.974781278621478 41.64146582201806 30.034786635638884 41.581999999999994 30.093999999999998 C 41.044 30.633999999999997 40.251999999999995 31.429999999999996 40.809999999999995 32.751999999999995 L 40.925 33.020999999999994 C 41.538 34.452999999999996 42.294999999999995 36.221 41.331999999999994 38.010999999999996 C 40.306999999999995 39.916999999999994 38.55199999999999 41.18899999999999 37.42699999999999 40.977999999999994 C 36.30299999999999 40.767999999999994 33.660999999999994 39.388999999999996 32.68999999999999 38.75999999999999 C 31.71899999999999 38.12999999999999 28.63999999999999 35.593999999999994 28.63999999999999 34.62299999999999 C 28.63999999999999 33.81399999999999 30.85399999999999 32.46799999999999 31.92999999999999 31.81299999999999 C 32.14399999999999 31.682999999999993 32.31299999999999 31.580999999999992 32.40999999999999 31.514999999999993 C 32.52099999999999 31.439999999999994 32.70699999999999 31.324999999999992 32.93599999999999 31.182999999999993 C 33.916999999999994 30.572999999999993 35.68999999999999 29.472999999999992 35.73499999999999 28.985999999999994 C 35.78999999999999 28.383999999999993 35.76899999999999 28.207999999999995 34.97699999999999 26.721999999999994 C 34.80899999999999 26.405999999999995 34.61199999999999 26.067999999999994 34.40899999999999 25.717999999999993 C 33.654999999999994 24.422999999999995 32.81099999999999 22.972999999999992 32.998999999999995 21.933999999999994 C 33.208999999999996 20.760999999999996 35.04899999999999 20.088999999999995 36.60699999999999 19.518999999999995 C 36.800999999999995 19.448999999999995 36.99199999999999 19.378999999999994 37.17399999999999 19.309999999999995 L 38.79699999999999 18.700999999999993 C 40.35299999999999 18.118999999999993 42.08099999999999 17.471999999999994 42.36699999999999 17.340999999999994 C 42.76099999999999 17.159999999999993 42.65899999999999 16.985999999999994 41.46399999999999 16.872999999999994 C 41.270561354731335 16.854031452665918 41.077225270705455 16.834031168111515 40.883999999999986 16.81299999999999 C 39.403999999999996 16.655999999999995 36.675 16.366999999999994 35.34899999999999 16.735999999999994 C 35.08799999999999 16.808999999999994 34.79599999999999 16.887999999999995 34.48899999999999 16.970999999999993 C 32.99899999999999 17.37399999999999 31.17199999999999 17.86799999999999 30.99599999999999 18.15299999999999 C 30.96599999999999 18.202999999999992 30.935999999999993 18.24599999999999 30.906999999999993 18.28599999999999 C 30.738999999999994 18.52399999999999 30.629999999999992 18.67999999999999 30.815999999999992 19.69199999999999 C 30.87099999999999 19.99399999999999 30.984999999999992 20.58699999999999 31.12599999999999 21.32099999999999 C 31.53599999999999 23.46899999999999 32.17899999999999 26.818999999999992 32.25999999999999 27.57099999999999 C 32.270999999999994 27.676999999999992 32.28399999999999 27.77799999999999 32.29599999999999 27.87599999999999 C 32.398999999999994 28.71599999999999 32.46699999999999 29.27499999999999 31.490999999999993 29.49799999999999 L 31.235999999999994 29.55599999999999 C 30.133999999999993 29.80799999999999 28.518999999999995 30.17899999999999 27.935999999999993 30.17899999999999 C 27.351999999999993 30.17899999999999 25.735999999999994 29.80899999999999 24.633999999999993 29.55599999999999 L 24.379999999999992 29.49799999999999 C 23.403999999999993 29.27499999999999 23.472999999999992 28.71599999999999 23.575999999999993 27.87599999999999 C 23.587999999999994 27.77799999999999 23.599999999999994 27.67599999999999 23.610999999999994 27.57099999999999 C 23.691999999999993 26.81799999999999 24.335999999999995 23.45899999999999 24.747999999999994 21.31199999999999 C 24.887999999999995 20.58199999999999 25.000999999999994 19.99199999999999 25.055999999999994 19.69199999999999 C 25.240999999999993 18.67999999999999 25.131999999999994 18.52399999999999 24.963999999999995 18.28599999999999 C 24.93305230488345 18.24231540177559 24.90304540048158 18.197971865270606 24.873999999999995 18.15299999999999 C 24.699999999999996 17.86799999999999 22.873999999999995 17.37399999999999 21.382999999999996 16.970999999999993 C 21.075999999999997 16.887999999999995 20.782999999999994 16.808999999999994 20.522999999999996 16.735999999999994 C 19.195999999999998 16.365999999999993 16.467999999999996 16.655999999999995 14.987999999999996 16.812999999999995 C 14.761999999999995 16.836999999999996 14.565999999999995 16.857999999999997 14.407999999999996 16.872999999999994 C 13.211999999999996 16.985999999999994 13.110999999999995 17.159999999999993 13.504999999999995 17.340999999999994 C 13.789999999999996 17.471999999999994 15.517999999999995 18.118999999999993 17.072999999999997 18.700999999999993 C 17.669999999999998 18.923999999999992 18.242999999999995 19.137999999999995 18.696999999999996 19.309999999999995 C 18.879999999999995 19.378999999999994 19.069999999999997 19.447999999999997 19.264999999999997 19.519999999999996 C 20.822999999999997 20.089999999999996 22.662999999999997 20.760999999999996 22.872999999999998 21.933999999999997 C 23.06 22.973 22.215999999999998 24.423 21.462999999999997 25.717999999999996 C 21.258999999999997 26.067999999999998 21.063 26.405999999999995 20.894 26.721999999999998 C 20.102999999999998 28.208 20.081999999999997 28.383999999999997 20.136999999999997 28.985999999999997 C 20.180999999999997 29.473999999999997 21.952999999999996 30.572999999999997 22.934999999999995 31.182999999999996 C 23.163999999999994 31.324999999999996 23.349999999999994 31.439999999999998 23.460999999999995 31.514999999999997 C 23.558999999999994 31.580999999999996 23.726999999999997 31.682999999999996 23.940999999999995 31.812999999999995 C 25.016999999999996 32.467 27.230999999999995 33.812999999999995 27.230999999999995 34.623 C 27.230999999999995 35.592999999999996 24.152999999999995 38.129999999999995 23.180999999999994 38.76 C 22.210999999999995 39.39 19.568999999999996 40.768 18.443999999999996 40.977999999999994 C 17.319999999999997 41.187999999999995 15.563999999999997 39.916999999999994 14.539999999999996 38.01199999999999 C 13.576999999999996 36.221 14.332999999999995 34.452999999999996 14.945999999999996 33.02199999999999 L 15.060999999999996 32.75199999999999 C 15.619999999999996 31.42999999999999 14.827999999999996 30.63399999999999 14.288999999999996 30.093999999999987 C 14.229866062543339 30.034783594172943 14.171527502231147 29.97477821785183 14.113999999999994 29.913999999999987 L 8.723999999999997 24.19699999999999 C 8.565999999999997 24.029999999999987 8.407999999999996 23.87699999999999 8.255999999999997 23.72899999999999 C 7.527999999999997 23.021999999999988 6.909999999999997 22.42099999999999 6.909999999999997 20.88699999999999 C 6.909999999999997 19.03199999999999 14.098999999999997 10.35099999999999 14.098999999999997 10.35099999999999 C 14.098999999999997 10.35099999999999 20.164999999999996 11.50799999999999 20.982999999999997 11.50799999999999 C 21.635999999999996 11.50799999999999 22.895999999999997 11.07499999999999 24.209999999999997 10.62299999999999 C 24.542999999999996 10.50899999999999 24.878999999999998 10.39299999999999 25.209999999999997 10.28299999999999 C 26.845 9.73799999999999 27.935999999999996 9.733999999999991 27.935999999999996 9.733999999999991 C 27.935999999999996 9.733999999999991 29.025999999999996 9.73799999999999 30.661999999999995 10.28299999999999 C 30.991999999999994 10.39299999999999 31.328999999999997 10.508999999999991 31.661999999999995 10.62299999999999 C 32.974999999999994 11.07499999999999 34.236 11.50799999999999 34.888 11.50799999999999 z M 33.847 42.214 C 35.129000000000005 42.873999999999995 36.039 43.342 36.383 43.557 C 36.828 43.835 36.557 44.36 36.151 44.647000000000006 C 35.746 44.932 30.298000000000002 49.14600000000001 29.770000000000003 49.61200000000001 L 29.555000000000003 49.80300000000001 C 29.046000000000003 50.262000000000015 28.396000000000004 50.84700000000001 27.935000000000002 50.84700000000001 C 27.475 50.84700000000001 26.825000000000003 50.26100000000001 26.315 49.80300000000001 L 26.102 49.61200000000001 C 25.572 49.14600000000001 20.125 44.93200000000001 19.72 44.64600000000001 C 19.314999999999998 44.36000000000001 19.043 43.836000000000006 19.488 43.556000000000004 C 19.832 43.342000000000006 20.743 42.873000000000005 22.027 42.212 L 23.247 41.583000000000006 C 25.167 40.59100000000001 27.562 39.746 27.936 39.746 C 28.309 39.746 30.703 40.59 32.625 41.583000000000006 C 33.061 41.809000000000005 33.47 42.02 33.847 42.21300000000001 z" stroke-linecap="round" />
</g>
		<g transform="matrix(1 0 0 1 -0.06 -26.25)"  >
<linearGradient id="SVGID_paint1_linear_4" gradientUnits="userSpaceOnUse" gradientTransform="matrix(1 0 0 1 0 0)"  x1="6.278" y1="11.466" x2="50.565" y2="11.466">
<stop offset="0%" style="stop-color:rgb(255,69,42);stop-opacity: 1"/>
<stop offset="100%" style="stop-color:rgb(255,32,0);stop-opacity: 1"/>
</linearGradient>
<path style="stroke: none; stroke-width: 1; stroke-dasharray: none; stroke-linecap: butt; stroke-dashoffset: 0; stroke-linejoin: miter; stroke-miterlimit: 4; fill: url(#SVGID_paint1_linear_4); fill-rule: evenodd; opacity: 1;" vector-effect="non-scaling-stroke"  transform=" translate(-27.94, -5.75)" d="M 43.34 6.334 L 37.751 0 L 18.12 0 L 12.531 6.334 C 12.531 6.334 7.623 4.9719999999999995 5.306000000000001 7.287 C 5.306000000000001 7.287 11.850000000000001 6.697 14.099 10.350999999999999 C 14.099 10.350999999999999 20.165 11.508 20.983 11.508 C 21.801000000000002 11.508 23.573 10.828 25.209 10.283 C 26.845 9.738 27.936 9.734 27.936 9.734 C 27.936 9.734 29.026 9.738 30.662 10.283 C 32.298 10.828 34.07 11.508 34.888 11.508 C 35.705999999999996 11.508 41.772999999999996 10.350999999999999 41.772999999999996 10.350999999999999 C 44.022 6.696999999999999 50.565 7.286999999999999 50.565 7.286999999999999 C 48.248 4.9719999999999995 43.339999999999996 6.333999999999999 43.339999999999996 6.333999999999999 z" stroke-linecap="round" />
</g>
</g>
</g>
<g transform="matrix(0.66 0 0 0.66 276.37 271.05)"  >
<g style=""   >
		<g transform="matrix(1 0 0 1 -0.06 -0.07)"  >
<linearGradient id="SVGID_paint0_linear_6" gradientUnits="userSpaceOnUse" gradientTransform="matrix(1 0 0 1 0 0)"  x1="0.671" y1="64.319" x2="55.2" y2="64.319">
<stop offset="0%" style="stop-color:rgb(255,85,0);stop-opacity: 1"/>
<stop offset="41%" style="stop-color:rgb(255,85,0);stop-opacity: 1"/>
<stop offset="58.199999999999996%" style="stop-color:rgb(255,32,0);stop-opacity: 1"/>
<stop offset="100%" style="stop-color:rgb(255,32,0);stop-opacity: 1"/>
</linearGradient>
<path style="stroke: none; stroke-width: 1; stroke-dasharray: none; stroke-linecap: butt; stroke-dashoffset: 0; stroke-linejoin: miter; stroke-miterlimit: 4; fill: url(#SVGID_paint0_linear_6); fill-rule: evenodd; opacity: 1;" vector-effect="non-scaling-stroke"  transform=" translate(-27.94, -31.93)" d="M 53.292 15.321 L 54.792 11.645 C 54.792 11.645 52.883 9.602 50.565 7.287 C 48.248 4.9719999999999995 43.339999999999996 6.334 43.339999999999996 6.334 L 37.751 0 L 18.12 0 L 12.531 6.334 C 12.531 6.334 7.623 4.9719999999999995 5.306000000000001 7.287 C 2.988 9.602 1.08 11.645 1.08 11.645 L 2.58 15.321 L 0.6700000000000002 20.768 C 0.6700000000000002 20.768 6.284 42.004000000000005 6.942 44.598 C 8.237 49.704 9.123000000000001 51.678 12.804 54.266 C 16.484 56.853 23.164 61.346 24.253999999999998 62.028 C 25.345 62.708 26.708999999999996 63.868 27.935999999999996 63.868 C 29.162999999999997 63.868 30.525999999999996 62.708000000000006 31.615999999999996 62.028 C 32.706999999999994 61.347 39.385999999999996 56.853 43.068 54.266 C 46.748 51.678999999999995 47.635 49.704 48.93 44.598 C 49.587 42.004 55.2 20.768 55.2 20.768 L 53.292 15.321000000000002 z" stroke-linecap="round" />
</g>
		<g transform="matrix(1 0 0 1 -0.06 -1.71)"  >
<path style="stroke: none; stroke-width: 1; stroke-dasharray: none; stroke-linecap: butt; stroke-dashoffset: 0; stroke-linejoin: miter; stroke-miterlimit: 4; fill: rgb(255,255,255); fill-rule: evenodd; opacity: 1;" vector-effect="non-scaling-stroke"  transform=" translate(-27.94, -30.29)" d="M 34.888 11.508 C 35.705999999999996 11.508 41.772999999999996 10.350999999999999 41.772999999999996 10.350999999999999 C 41.772999999999996 10.350999999999999 48.961999999999996 19.031 48.961999999999996 20.887 C 48.961999999999996 22.421 48.342999999999996 23.021 47.614999999999995 23.729 C 47.462999999999994 23.877 47.30499999999999 24.029 47.147999999999996 24.197 L 41.757999999999996 29.913999999999998 C 41.7001377266573 29.974781278621478 41.64146582201806 30.034786635638884 41.581999999999994 30.093999999999998 C 41.044 30.633999999999997 40.251999999999995 31.429999999999996 40.809999999999995 32.751999999999995 L 40.925 33.020999999999994 C 41.538 34.452999999999996 42.294999999999995 36.221 41.331999999999994 38.010999999999996 C 40.306999999999995 39.916999999999994 38.55199999999999 41.18899999999999 37.42699999999999 40.977999999999994 C 36.30299999999999 40.767999999999994 33.660999999999994 39.388999999999996 32.68999999999999 38.75999999999999 C 31.71899999999999 38.12999999999999 28.63999999999999 35.593999999999994 28.63999999999999 34.62299999999999 C 28.63999999999999 33.81399999999999 30.85399999999999 32.46799999999999 31.92999999999999 31.81299999999999 C 32.14399999999999 31.682999999999993 32.31299999999999 31.580999999999992 32.40999999999999 31.514999999999993 C 32.52099999999999 31.439999999999994 32.70699999999999 31.324999999999992 32.93599999999999 31.182999999999993 C 33.916999999999994 30.572999999999993 35.68999999999999 29.472999999999992 35.73499999999999 28.985999999999994 C 35.78999999999999 28.383999999999993 35.76899999999999 28.207999999999995 34.97699999999999 26.721999999999994 C 34.80899999999999 26.405999999999995 34.61199999999999 26.067999999999994 34.40899999999999 25.717999999999993 C 33.654999999999994 24.422999999999995 32.81099999999999 22.972999999999992 32.998999999999995 21.933999999999994 C 33.208999999999996 20.760999999999996 35.04899999999999 20.088999999999995 36.60699999999999 19.518999999999995 C 36.800999999999995 19.448999999999995 36.99199999999999 19.378999999999994 37.17399999999999 19.309999999999995 L 38.79699999999999 18.700999999999993 C 40.35299999999999 18.118999999999993 42.08099999999999 17.471999999999994 42.36699999999999 17.340999999999994 C 42.76099999999999 17.159999999999993 42.65899999999999 16.985999999999994 41.46399999999999 16.872999999999994 C 41.270561354731335 16.854031452665918 41.077225270705455 16.834031168111515 40.883999999999986 16.81299999999999 C 39.403999999999996 16.655999999999995 36.675 16.366999999999994 35.34899999999999 16.735999999999994 C 35.08799999999999 16.808999999999994 34.79599999999999 16.887999999999995 34.48899999999999 16.970999999999993 C 32.99899999999999 17.37399999999999 31.17199999999999 17.86799999999999 30.99599999999999 18.15299999999999 C 30.96599999999999 18.202999999999992 30.935999999999993 18.24599999999999 30.906999999999993 18.28599999999999 C 30.738999999999994 18.52399999999999 30.629999999999992 18.67999999999999 30.815999999999992 19.69199999999999 C 30.87099999999999 19.99399999999999 30.984999999999992 20.58699999999999 31.12599999999999 21.32099999999999 C 31.53599999999999 23.46899999999999 32.17899999999999 26.818999999999992 32.25999999999999 27.57099999999999 C 32.270999999999994 27.676999999999992 32.28399999999999 27.77799999999999 32.29599999999999 27.87599999999999 C 32.398999999999994 28.71599999999999 32.46699999999999 29.27499999999999 31.490999999999993 29.49799999999999 L 31.235999999999994 29.55599999999999 C 30.133999999999993 29.80799999999999 28.518999999999995 30.17899999999999 27.935999999999993 30.17899999999999 C 27.351999999999993 30.17899999999999 25.735999999999994 29.80899999999999 24.633999999999993 29.55599999999999 L 24.379999999999992 29.49799999999999 C 23.403999999999993 29.27499999999999 23.472999999999992 28.71599999999999 23.575999999999993 27.87599999999999 C 23.587999999999994 27.77799999999999 23.599999999999994 27.67599999999999 23.610999999999994 27.57099999999999 C 23.691999999999993 26.81799999999999 24.335999999999995 23.45899999999999 24.747999999999994 21.31199999999999 C 24.887999999999995 20.58199999999999 25.000999999999994 19.99199999999999 25.055999999999994 19.69199999999999 C 25.240999999999993 18.67999999999999 25.131999999999994 18.52399999999999 24.963999999999995 18.28599999999999 C 24.93305230488345 18.24231540177559 24.90304540048158 18.197971865270606 24.873999999999995 18.15299999999999 C 24.699999999999996 17.86799999999999 22.873999999999995 17.37399999999999 21.382999999999996 16.970999999999993 C 21.075999999999997 16.887999999999995 20.782999999999994 16.808999999999994 20.522999999999996 16.735999999999994 C 19.195999999999998 16.365999999999993 16.467999999999996 16.655999999999995 14.987999999999996 16.812999999999995 C 14.761999999999995 16.836999999999996 14.565999999999995 16.857999999999997 14.407999999999996 16.872999999999994 C 13.211999999999996 16.985999999999994 13.110999999999995 17.159999999999993 13.504999999999995 17.340999999999994 C 13.789999999999996 17.471999999999994 15.517999999999995 18.118999999999993 17.072999999999997 18.700999999999993 C 17.669999999999998 18.923999999999992 18.242999999999995 19.137999999999995 18.696999999999996 19.309999999999995 C 18.879999999999995 19.378999999999994 19.069999999999997 19.447999999999997 19.264999999999997 19.519999999999996 C 20.822999999999997 20.089999999999996 22.662999999999997 20.760999999999996 22.872999999999998 21.933999999999997 C 23.06 22.973 22.215999999999998 24.423 21.462999999999997 25.717999999999996 C 21.258999999999997 26.067999999999998 21.063 26.405999999999995 20.894 26.721999999999998 C 20.102999999999998 28.208 20.081999999999997 28.383999999999997 20.136999999999997 28.985999999999997 C 20.180999999999997 29.473999999999997 21.952999999999996 30.572999999999997 22.934999999999995 31.182999999999996 C 23.163999999999994 31.324999999999996 23.349999999999994 31.439999999999998 23.460999999999995 31.514999999999997 C 23.558999999999994 31.580999999999996 23.726999999999997 31.682999999999996 23.940999999999995 31.812999999999995 C 25.016999999999996 32.467 27.230999999999995 33.812999999999995 27.230999999999995 34.623 C 27.230999999999995 35.592999999999996 24.152999999999995 38.129999999999995 23.180999999999994 38.76 C 22.210999999999995 39.39 19.568999999999996 40.768 18.443999999999996 40.977999999999994 C 17.319999999999997 41.187999999999995 15.563999999999997 39.916999999999994 14.539999999999996 38.01199999999999 C 13.576999999999996 36.221 14.332999999999995 34.452999999999996 14.945999999999996 33.02199999999999 L 15.060999999999996 32.75199999999999 C 15.619999999999996 31.42999999999999 14.827999999999996 30.63399999999999 14.288999999999996 30.093999999999987 C 14.229866062543339 30.034783594172943 14.171527502231147 29.97477821785183 14.113999999999994 29.913999999999987 L 8.723999999999997 24.19699999999999 C 8.565999999999997 24.029999999999987 8.407999999999996 23.87699999999999 8.255999999999997 23.72899999999999 C 7.527999999999997 23.021999999999988 6.909999999999997 22.42099999999999 6.909999999999997 20.88699999999999 C 6.909999999999997 19.03199999999999 14.098999999999997 10.35099999999999 14.098999999999997 10.35099999999999 C 14.098999999999997 10.35099999999999 20.164999999999996 11.50799999999999 20.982999999999997 11.50799999999999 C 21.635999999999996 11.50799999999999 22.895999999999997 11.07499999999999 24.209999999999997 10.62299999999999 C 24.542999999999996 10.50899999999999 24.878999999999998 10.39299999999999 25.209999999999997 10.28299999999999 C 26.845 9.73799999999999 27.935999999999996 9.733999999999991 27.935999999999996 9.733999999999991 C 27.935999999999996 9.733999999999991 29.025999999999996 9.73799999999999 30.661999999999995 10.28299999999999 C 30.991999999999994 10.39299999999999 31.328999999999997 10.508999999999991 31.661999999999995 10.62299999999999 C 32.974999999999994 11.07499999999999 34.236 11.50799999999999 34.888 11.50799999999999 z M 33.847 42.214 C 35.129000000000005 42.873999999999995 36.039 43.342 36.383 43.557 C 36.828 43.835 36.557 44.36 36.151 44.647000000000006 C 35.746 44.932 30.298000000000002 49.14600000000001 29.770000000000003 49.61200000000001 L 29.555000000000003 49.80300000000001 C 29.046000000000003 50.262000000000015 28.396000000000004 50.84700000000001 27.935000000000002 50.84700000000001 C 27.475 50.84700000000001 26.825000000000003 50.26100000000001 26.315 49.80300000000001 L 26.102 49.61200000000001 C 25.572 49.14600000000001 20.125 44.93200000000001 19.72 44.64600000000001 C 19.314999999999998 44.36000000000001 19.043 43.836000000000006 19.488 43.556000000000004 C 19.832 43.342000000000006 20.743 42.873000000000005 22.027 42.212 L 23.247 41.583000000000006 C 25.167 40.59100000000001 27.562 39.746 27.936 39.746 C 28.309 39.746 30.703 40.59 32.625 41.583000000000006 C 33.061 41.809000000000005 33.47 42.02 33.847 42.21300000000001 z" stroke-linecap="round" />
</g>
		<g transform="matrix(1 0 0 1 -0.06 -26.25)"  >
<linearGradient id="SVGID_paint1_linear_7" gradientUnits="userSpaceOnUse" gradientTransform="matrix(1 0 0 1 0 0)"  x1="6.278" y1="11.466" x2="50.565" y2="11.466">
<stop offset="0%" style="stop-color:rgb(255,69,42);stop-opacity: 1"/>
<stop offset="100%" style="stop-color:rgb(255,32,0);stop-opacity: 1"/>
</linearGradient>
<path style="stroke: none; stroke-width: 1; stroke-dasharray: none; stroke-linecap: butt; stroke-dashoffset: 0; stroke-linejoin: miter; stroke-miterlimit: 4; fill: url(#SVGID_paint1_linear_7); fill-rule: evenodd; opacity: 1;" vector-effect="non-scaling-stroke"  transform=" translate(-27.94, -5.75)" d="M 43.34 6.334 L 37.751 0 L 18.12 0 L 12.531 6.334 C 12.531 6.334 7.623 4.9719999999999995 5.306000000000001 7.287 C 5.306000000000001 7.287 11.850000000000001 6.697 14.099 10.350999999999999 C 14.099 10.350999999999999 20.165 11.508 20.983 11.508 C 21.801000000000002 11.508 23.573 10.828 25.209 10.283 C 26.845 9.738 27.936 9.734 27.936 9.734 C 27.936 9.734 29.026 9.738 30.662 10.283 C 32.298 10.828 34.07 11.508 34.888 11.508 C 35.705999999999996 11.508 41.772999999999996 10.350999999999999 41.772999999999996 10.350999999999999 C 44.022 6.696999999999999 50.565 7.286999999999999 50.565 7.286999999999999 C 48.248 4.9719999999999995 43.339999999999996 6.333999999999999 43.339999999999996 6.333999999999999 z" stroke-linecap="round" />
</g>
</g>
</g>
<g transform="matrix(0.66 0 0 0.66 18.5 20)"  >
<g style=""   >
		<g transform="matrix(1 0 0 1 -0.06 -0.07)"  >
<linearGradient id="SVGID_paint0_linear_9" gradientUnits="userSpaceOnUse" gradientTransform="matrix(1 0 0 1 0 0)"  x1="0.671" y1="64.319" x2="55.2" y2="64.319">
<stop offset="0%" style="stop-color:rgb(255,85,0);stop-opacity: 1"/>
<stop offset="41%" style="stop-color:rgb(255,85,0);stop-opacity: 1"/>
<stop offset="58.199999999999996%" style="stop-color:rgb(255,32,0);stop-opacity: 1"/>
<stop offset="100%" style="stop-color:rgb(255,32,0);stop-opacity: 1"/>
</linearGradient>
<path style="stroke: none; stroke-width: 1; stroke-dasharray: none; stroke-linecap: butt; stroke-dashoffset: 0; stroke-linejoin: miter; stroke-miterlimit: 4; fill: url(#SVGID_paint0_linear_9); fill-rule: evenodd; opacity: 1;" vector-effect="non-scaling-stroke"  transform=" translate(-27.94, -31.93)" d="M 53.292 15.321 L 54.792 11.645 C 54.792 11.645 52.883 9.602 50.565 7.287 C 48.248 4.9719999999999995 43.339999999999996 6.334 43.339999999999996 6.334 L 37.751 0 L 18.12 0 L 12.531 6.334 C 12.531 6.334 7.623 4.9719999999999995 5.306000000000001 7.287 C 2.988 9.602 1.08 11.645 1.08 11.645 L 2.58 15.321 L 0.6700000000000002 20.768 C 0.6700000000000002 20.768 6.284 42.004000000000005 6.942 44.598 C 8.237 49.704 9.123000000000001 51.678 12.804 54.266 C 16.484 56.853 23.164 61.346 24.253999999999998 62.028 C 25.345 62.708 26.708999999999996 63.868 27.935999999999996 63.868 C 29.162999999999997 63.868 30.525999999999996 62.708000000000006 31.615999999999996 62.028 C 32.706999999999994 61.347 39.385999999999996 56.853 43.068 54.266 C 46.748 51.678999999999995 47.635 49.704 48.93 44.598 C 49.587 42.004 55.2 20.768 55.2 20.768 L 53.292 15.321000000000002 z" stroke-linecap="round" />
</g>
		<g transform="matrix(1 0 0 1 -0.06 -1.71)"  >
<path style="stroke: none; stroke-width: 1; stroke-dasharray: none; stroke-linecap: butt; stroke-dashoffset: 0; stroke-linejoin: miter; stroke-miterlimit: 4; fill: rgb(255,255,255); fill-rule: evenodd; opacity: 1;" vector-effect="non-scaling-stroke"  transform=" translate(-27.94, -30.29)" d="M 34.888 11.508 C 35.705999999999996 11.508 41.772999999999996 10.350999999999999 41.772999999999996 10.350999999999999 C 41.772999999999996 10.350999999999999 48.961999999999996 19.031 48.961999999999996 20.887 C 48.961999999999996 22.421 48.342999999999996 23.021 47.614999999999995 23.729 C 47.462999999999994 23.877 47.30499999999999 24.029 47.147999999999996 24.197 L 41.757999999999996 29.913999999999998 C 41.7001377266573 29.974781278621478 41.64146582201806 30.034786635638884 41.581999999999994 30.093999999999998 C 41.044 30.633999999999997 40.251999999999995 31.429999999999996 40.809999999999995 32.751999999999995 L 40.925 33.020999999999994 C 41.538 34.452999999999996 42.294999999999995 36.221 41.331999999999994 38.010999999999996 C 40.306999999999995 39.916999999999994 38.55199999999999 41.18899999999999 37.42699999999999 40.977999999999994 C 36.30299999999999 40.767999999999994 33.660999999999994 39.388999999999996 32.68999999999999 38.75999999999999 C 31.71899999999999 38.12999999999999 28.63999999999999 35.593999999999994 28.63999999999999 34.62299999999999 C 28.63999999999999 33.81399999999999 30.85399999999999 32.46799999999999 31.92999999999999 31.81299999999999 C 32.14399999999999 31.682999999999993 32.31299999999999 31.580999999999992 32.40999999999999 31.514999999999993 C 32.52099999999999 31.439999999999994 32.70699999999999 31.324999999999992 32.93599999999999 31.182999999999993 C 33.916999999999994 30.572999999999993 35.68999999999999 29.472999999999992 35.73499999999999 28.985999999999994 C 35.78999999999999 28.383999999999993 35.76899999999999 28.207999999999995 34.97699999999999 26.721999999999994 C 34.80899999999999 26.405999999999995 34.61199999999999 26.067999999999994 34.40899999999999 25.717999999999993 C 33.654999999999994 24.422999999999995 32.81099999999999 22.972999999999992 32.998999999999995 21.933999999999994 C 33.208999999999996 20.760999999999996 35.04899999999999 20.088999999999995 36.60699999999999 19.518999999999995 C 36.800999999999995 19.448999999999995 36.99199999999999 19.378999999999994 37.17399999999999 19.309999999999995 L 38.79699999999999 18.700999999999993 C 40.35299999999999 18.118999999999993 42.08099999999999 17.471999999999994 42.36699999999999 17.340999999999994 C 42.76099999999999 17.159999999999993 42.65899999999999 16.985999999999994 41.46399999999999 16.872999999999994 C 41.270561354731335 16.854031452665918 41.077225270705455 16.834031168111515 40.883999999999986 16.81299999999999 C 39.403999999999996 16.655999999999995 36.675 16.366999999999994 35.34899999999999 16.735999999999994 C 35.08799999999999 16.808999999999994 34.79599999999999 16.887999999999995 34.48899999999999 16.970999999999993 C 32.99899999999999 17.37399999999999 31.17199999999999 17.86799999999999 30.99599999999999 18.15299999999999 C 30.96599999999999 18.202999999999992 30.935999999999993 18.24599999999999 30.906999999999993 18.28599999999999 C 30.738999999999994 18.52399999999999 30.629999999999992 18.67999999999999 30.815999999999992 19.69199999999999 C 30.87099999999999 19.99399999999999 30.984999999999992 20.58699999999999 31.12599999999999 21.32099999999999 C 31.53599999999999 23.46899999999999 32.17899999999999 26.818999999999992 32.25999999999999 27.57099999999999 C 32.270999999999994 27.676999999999992 32.28399999999999 27.77799999999999 32.29599999999999 27.87599999999999 C 32.398999999999994 28.71599999999999 32.46699999999999 29.27499999999999 31.490999999999993 29.49799999999999 L 31.235999999999994 29.55599999999999 C 30.133999999999993 29.80799999999999 28.518999999999995 30.17899999999999 27.935999999999993 30.17899999999999 C 27.351999999999993 30.17899999999999 25.735999999999994 29.80899999999999 24.633999999999993 29.55599999999999 L 24.379999999999992 29.49799999999999 C 23.403999999999993 29.27499999999999 23.472999999999992 28.71599999999999 23.575999999999993 27.87599999999999 C 23.587999999999994 27.77799999999999 23.599999999999994 27.67599999999999 23.610999999999994 27.57099999999999 C 23.691999999999993 26.81799999999999 24.335999999999995 23.45899999999999 24.747999999999994 21.31199999999999 C 24.887999999999995 20.58199999999999 25.000999999999994 19.99199999999999 25.055999999999994 19.69199999999999 C 25.240999999999993 18.67999999999999 25.131999999999994 18.52399999999999 24.963999999999995 18.28599999999999 C 24.93305230488345 18.24231540177559 24.90304540048158 18.197971865270606 24.873999999999995 18.15299999999999 C 24.699999999999996 17.86799999999999 22.873999999999995 17.37399999999999 21.382999999999996 16.970999999999993 C 21.075999999999997 16.887999999999995 20.782999999999994 16.808999999999994 20.522999999999996 16.735999999999994 C 19.195999999999998 16.365999999999993 16.467999999999996 16.655999999999995 14.987999999999996 16.812999999999995 C 14.761999999999995 16.836999999999996 14.565999999999995 16.857999999999997 14.407999999999996 16.872999999999994 C 13.211999999999996 16.985999999999994 13.110999999999995 17.159999999999993 13.504999999999995 17.340999999999994 C 13.789999999999996 17.471999999999994 15.517999999999995 18.118999999999993 17.072999999999997 18.700999999999993 C 17.669999999999998 18.923999999999992 18.242999999999995 19.137999999999995 18.696999999999996 19.309999999999995 C 18.879999999999995 19.378999999999994 19.069999999999997 19.447999999999997 19.264999999999997 19.519999999999996 C 20.822999999999997 20.089999999999996 22.662999999999997 20.760999999999996 22.872999999999998 21.933999999999997 C 23.06 22.973 22.215999999999998 24.423 21.462999999999997 25.717999999999996 C 21.258999999999997 26.067999999999998 21.063 26.405999999999995 20.894 26.721999999999998 C 20.102999999999998 28.208 20.081999999999997 28.383999999999997 20.136999999999997 28.985999999999997 C 20.180999999999997 29.473999999999997 21.952999999999996 30.572999999999997 22.934999999999995 31.182999999999996 C 23.163999999999994 31.324999999999996 23.349999999999994 31.439999999999998 23.460999999999995 31.514999999999997 C 23.558999999999994 31.580999999999996 23.726999999999997 31.682999999999996 23.940999999999995 31.812999999999995 C 25.016999999999996 32.467 27.230999999999995 33.812999999999995 27.230999999999995 34.623 C 27.230999999999995 35.592999999999996 24.152999999999995 38.129999999999995 23.180999999999994 38.76 C 22.210999999999995 39.39 19.568999999999996 40.768 18.443999999999996 40.977999999999994 C 17.319999999999997 41.187999999999995 15.563999999999997 39.916999999999994 14.539999999999996 38.01199999999999 C 13.576999999999996 36.221 14.332999999999995 34.452999999999996 14.945999999999996 33.02199999999999 L 15.060999999999996 32.75199999999999 C 15.619999999999996 31.42999999999999 14.827999999999996 30.63399999999999 14.288999999999996 30.093999999999987 C 14.229866062543339 30.034783594172943 14.171527502231147 29.97477821785183 14.113999999999994 29.913999999999987 L 8.723999999999997 24.19699999999999 C 8.565999999999997 24.029999999999987 8.407999999999996 23.87699999999999 8.255999999999997 23.72899999999999 C 7.527999999999997 23.021999999999988 6.909999999999997 22.42099999999999 6.909999999999997 20.88699999999999 C 6.909999999999997 19.03199999999999 14.098999999999997 10.35099999999999 14.098999999999997 10.35099999999999 C 14.098999999999997 10.35099999999999 20.164999999999996 11.50799999999999 20.982999999999997 11.50799999999999 C 21.635999999999996 11.50799999999999 22.895999999999997 11.07499999999999 24.209999999999997 10.62299999999999 C 24.542999999999996 10.50899999999999 24.878999999999998 10.39299999999999 25.209999999999997 10.28299999999999 C 26.845 9.73799999999999 27.935999999999996 9.733999999999991 27.935999999999996 9.733999999999991 C 27.935999999999996 9.733999999999991 29.025999999999996 9.73799999999999 30.661999999999995 10.28299999999999 C 30.991999999999994 10.39299999999999 31.328999999999997 10.508999999999991 31.661999999999995 10.62299999999999 C 32.974999999999994 11.07499999999999 34.236 11.50799999999999 34.888 11.50799999999999 z M 33.847 42.214 C 35.129000000000005 42.873999999999995 36.039 43.342 36.383 43.557 C 36.828 43.835 36.557 44.36 36.151 44.647000000000006 C 35.746 44.932 30.298000000000002 49.14600000000001 29.770000000000003 49.61200000000001 L 29.555000000000003 49.80300000000001 C 29.046000000000003 50.262000000000015 28.396000000000004 50.84700000000001 27.935000000000002 50.84700000000001 C 27.475 50.84700000000001 26.825000000000003 50.26100000000001 26.315 49.80300000000001 L 26.102 49.61200000000001 C 25.572 49.14600000000001 20.125 44.93200000000001 19.72 44.64600000000001 C 19.314999999999998 44.36000000000001 19.043 43.836000000000006 19.488 43.556000000000004 C 19.832 43.342000000000006 20.743 42.873000000000005 22.027 42.212 L 23.247 41.583000000000006 C 25.167 40.59100000000001 27.562 39.746 27.936 39.746 C 28.309 39.746 30.703 40.59 32.625 41.583000000000006 C 33.061 41.809000000000005 33.47 42.02 33.847 42.21300000000001 z" stroke-linecap="round" />
</g>
		<g transform="matrix(1 0 0 1 -0.06 -26.25)"  >
<linearGradient id="SVGID_paint1_linear_10" gradientUnits="userSpaceOnUse" gradientTransform="matrix(1 0 0 1 0 0)"  x1="6.278" y1="11.466" x2="50.565" y2="11.466">
<stop offset="0%" style="stop-color:rgb(255,69,42);stop-opacity: 1"/>
<stop offset="100%" style="stop-color:rgb(255,32,0);stop-opacity: 1"/>
</linearGradient>
<path style="stroke: none; stroke-width: 1; stroke-dasharray: none; stroke-linecap: butt; stroke-dashoffset: 0; stroke-linejoin: miter; stroke-miterlimit: 4; fill: url(#SVGID_paint1_linear_10); fill-rule: evenodd; opacity: 1;" vector-effect="non-scaling-stroke"  transform=" translate(-27.94, -5.75)" d="M 43.34 6.334 L 37.751 0 L 18.12 0 L 12.531 6.334 C 12.531 6.334 7.623 4.9719999999999995 5.306000000000001 7.287 C 5.306000000000001 7.287 11.850000000000001 6.697 14.099 10.350999999999999 C 14.099 10.350999999999999 20.165 11.508 20.983 11.508 C 21.801000000000002 11.508 23.573 10.828 25.209 10.283 C 26.845 9.738 27.936 9.734 27.936 9.734 C 27.936 9.734 29.026 9.738 30.662 10.283 C 32.298 10.828 34.07 11.508 34.888 11.508 C 35.705999999999996 11.508 41.772999999999996 10.350999999999999 41.772999999999996 10.350999999999999 C 44.022 6.696999999999999 50.565 7.286999999999999 50.565 7.286999999999999 C 48.248 4.9719999999999995 43.339999999999996 6.333999999999999 43.339999999999996 6.333999999999999 z" stroke-linecap="round" />
</g>
</g>
</g>
</svg>