<?xml version="1.0" encoding="UTF-8" standalone="no" ?>
<!DOCTYPE svg PUBLIC "-//W3C//DTD SVG 1.1//EN" "http://www.w3.org/Graphics/SVG/1.1/DTD/svg11.dtd">
<svg xmlns="http://www.w3.org/2000/svg" xmlns:xlink="http://www.w3.org/1999/xlink" version="1.1" width="38" height="40" viewBox="0 0 38 40" xml:space="preserve">
<desc>Created with Fabric.js 5.2.4</desc>
<defs>
</defs>
<g transform="matrix(1 0 0 1 19 20)" id="ecdd1711-fdcf-499a-b5b2-893744b88c02"  >
<rect style="stroke: none; stroke-width: 1; stroke-dasharray: none; stroke-linecap: butt; stroke-dashoffset: 0; stroke-linejoin: miter; stroke-miterlimit: 4; fill: rgb(255,255,255); fill-rule: nonzero; opacity: 1; visibility: hidden;" vector-effect="non-scaling-stroke"  x="-19" y="-20" rx="0" ry="0" width="38" height="40" />
</g>
<g transform="matrix(Infinity NaN NaN Infinity 0 0)" id="c4bf2e06-17a7-463f-8a82-adaba5cd210f"  >
</g>
<g transform="matrix(0.13 0 0 0.13 19 20)"  >
<g style=""   >
		<g transform="matrix(1 0 0 1 -0.3 0)"  >
<path style="stroke: none; stroke-width: 1; stroke-dasharray: none; stroke-linecap: butt; stroke-dashoffset: 0; stroke-linejoin: miter; stroke-miterlimit: 4; fill: rgb(50,89,165); fill-rule: nonzero; opacity: 1;" vector-effect="non-scaling-stroke"  transform=" translate(-145.7, -146)" d="M 145.7 291.66 C 226.146 291.66 291.36 226.446 291.36 146 C 291.36 65.5541 226.146 0.339844 145.7 0.339844 C 65.2542 0.339844 0.0400391 65.5541 0.0400391 146 C 0.0400391 226.446 65.2542 291.66 145.7 291.66 Z" stroke-linecap="round" />
</g>
		<g transform="matrix(1 0 0 1 -0.29 0)"  >
<path style="stroke: none; stroke-width: 1; stroke-dasharray: none; stroke-linecap: butt; stroke-dashoffset: 0; stroke-linejoin: miter; stroke-miterlimit: 4; fill: rgb(255,255,255); fill-rule: nonzero; opacity: 1;" vector-effect="non-scaling-stroke"  transform=" translate(-145.71, -146)" d="M 195.94 155.5 C 191.49 179.08 170.8 196.91 145.93 196.91 C 117.81 196.91 95.0204 174.12 95.0204 146 C 95.0204 117.88 117.81 95.0897 145.93 95.0897 C 170.8 95.0897 191.49 112.93 195.94 136.5 L 247.31 136.5 C 242.52 84.7197 198.96 44.1797 145.93 44.1797 C 89.6904 44.1797 44.1104 89.7697 44.1104 146 C 44.1104 202.24 89.7004 247.82 145.93 247.82 C 198.96 247.82 242.52 207.28 247.31 155.5 L 195.94 155.5 Z" stroke-linecap="round" />
</g>
</g>
</g>
</svg>