<svg fill="#ebebeb" height="152px" width="152px" version="1.1" id="Capa_1" xmlns="http://www.w3.org/2000/svg" xmlns:xlink="http://www.w3.org/1999/xlink" viewBox="0 0 58 58" xml:space="preserve" stroke="#ebebeb"><g id="SVGRepo_bgCarrier" stroke-width="0"></g><g id="SVGRepo_tracerCarrier" stroke-linecap="round" stroke-linejoin="round"></g><g id="SVGRepo_iconCarrier"> <path d="M48.364,14H32.5v-4h13l-3.75-5l3.75-5h-15v4v6v4h-19l-0.333,0.009C11.111,14.008,11.056,14,11,14 c-5.238,0-9.5,4.262-9.5,9.5V46h17h2h4v12h10V46h22V22.136C56.5,17.649,52.85,14,48.364,14z M18.5,44h-15V23.5 c0-4.136,3.364-7.5,7.5-7.5c0.102,0,0.2,0.011,0.301,0.015l0.141,0.008c0.494,0.029,0.975,0.105,1.438,0.224 c0.001,0,0.003,0.001,0.004,0.001c0.224,0.058,0.444,0.127,0.66,0.204c0.014,0.005,0.028,0.01,0.041,0.015 c0.203,0.074,0.401,0.158,0.595,0.249c0.026,0.012,0.053,0.025,0.079,0.038c0.18,0.087,0.357,0.181,0.529,0.282 c0.037,0.022,0.074,0.045,0.111,0.067c0.159,0.097,0.314,0.199,0.465,0.307c0.045,0.033,0.09,0.067,0.135,0.101 c0.139,0.105,0.276,0.213,0.407,0.327c0.05,0.044,0.099,0.089,0.148,0.134c0.121,0.111,0.241,0.224,0.355,0.343 c0.052,0.054,0.101,0.111,0.151,0.167c0.105,0.116,0.209,0.234,0.307,0.356c0.052,0.065,0.1,0.133,0.15,0.2 c0.089,0.12,0.178,0.241,0.261,0.366c0.049,0.075,0.094,0.154,0.141,0.231c0.075,0.123,0.149,0.246,0.217,0.374 c0.046,0.087,0.085,0.177,0.128,0.265c0.06,0.124,0.121,0.248,0.174,0.376c0.041,0.098,0.074,0.2,0.11,0.301 c0.045,0.123,0.092,0.246,0.131,0.372c0.035,0.115,0.061,0.233,0.09,0.35c0.029,0.117,0.063,0.232,0.087,0.35 c0.029,0.146,0.047,0.295,0.068,0.443c0.013,0.095,0.032,0.187,0.042,0.283c0.025,0.247,0.038,0.496,0.038,0.749V44z M32.5,47h-2 c-0.552,0-1,0.447-1,1s0.448,1,1,1h2v1h-2c-0.552,0-1,0.447-1,1s0.448,1,1,1h2v1h-2c-0.552,0-1,0.447-1,1s0.448,1,1,1h2v1h-6V46h6 V47z M31.5,32c-2.757,0-5-2.243-5-5c0-2.414,1.721-4.434,4-4.899V27c0,0.553,0.448,1,1,1s1-0.447,1-1v-4.899 c2.279,0.465,4,2.484,4,4.899C36.5,29.757,34.257,32,31.5,32z"></path> </g></svg>