<svg fill="#000000" width="125px" height="125px" viewBox="0 0 24 24" id="switch-right" data-name="Flat Line" xmlns="http://www.w3.org/2000/svg" class="icon flat-line"><g id="SVGRepo_bgCarrier" stroke-width="0"></g><g id="SVGRepo_tracerCarrier" stroke-linecap="round" stroke-linejoin="round"></g><g id="SVGRepo_iconCarrier"><path id="secondary" d="M15,6H9A6,6,0,0,0,9,18h6A6,6,0,0,0,15,6Zm-.5,8.5A2.5,2.5,0,1,1,17,12,2.5,2.5,0,0,1,14.5,14.5Z" style="fill: #ffffff; stroke-width: 2;"></path><path id="primary" d="M17,12a2.5,2.5,0,1,1-2.5-2.5A2.5,2.5,0,0,1,17,12Zm4,0h0a6,6,0,0,0-6-6H9a6,6,0,0,0-6,6H3a6,6,0,0,0,6,6h6A6,6,0,0,0,21,12Z" style="fill: none; stroke: #F5CC00; stroke-linecap: round; stroke-linejoin: round; stroke-width: 2;"></path></g></svg>