<?xml version="1.0" encoding="UTF-8" standalone="no" ?>
<!DOCTYPE svg PUBLIC "-//W3C//DTD SVG 1.1//EN" "http://www.w3.org/Graphics/SVG/1.1/DTD/svg11.dtd">
<svg xmlns="http://www.w3.org/2000/svg" xmlns:xlink="http://www.w3.org/1999/xlink" version="1.1" width="38" height="40" viewBox="0 0 38 40" xml:space="preserve">
<desc>Created with Fabric.js 5.2.4</desc>
<defs>
</defs>
<g transform="matrix(1 0 0 1 19 20)" id="15b7c9bd-ec34-468c-ae57-014d2d7a03c4"  >
<rect style="stroke: none; stroke-width: 1; stroke-dasharray: none; stroke-linecap: butt; stroke-dashoffset: 0; stroke-linejoin: miter; stroke-miterlimit: 4; fill: rgb(255,255,255); fill-rule: nonzero; opacity: 1; visibility: hidden;" vector-effect="non-scaling-stroke"  x="-19" y="-20" rx="0" ry="0" width="38" height="40" />
</g>
<g transform="matrix(Infinity NaN NaN Infinity 0 0)" id="b6866f04-683f-4672-8613-d6234a1598fc"  >
</g>
<g transform="matrix(0.07 0 0 0.07 19 20)"  >
<g style=""   >
		<g transform="matrix(1 0 0 1 0 0)" id="base"  >
<radialGradient id="SVGID_radialGradient-1_3" gradientUnits="objectBoundingBox" gradientTransform="matrix(1 0 0 1 0 0)"  cx="0" cy="0.5" r="1" fx="0" fy="0.5">
<stop offset="0%" style="stop-color:rgb(93,157,246);stop-opacity: 1"/>
<stop offset="100%" style="stop-color:rgb(0,111,255);stop-opacity: 1"/>
</radialGradient>
<rect style="stroke: none; stroke-width: 1; stroke-dasharray: none; stroke-linecap: butt; stroke-dashoffset: 0; stroke-linejoin: miter; stroke-miterlimit: 4; fill: url(#SVGID_radialGradient-1_3); fill-rule: evenodd; opacity: 1;" vector-effect="non-scaling-stroke"  x="-256" y="-256" rx="256" ry="256" width="512" height="512" />
</g>
		<g transform="matrix(1 0 0 1 0 -16.59)" id="WalletConnect"  >
<path style="stroke: none; stroke-width: 1; stroke-dasharray: none; stroke-linecap: butt; stroke-dashoffset: 0; stroke-linejoin: miter; stroke-miterlimit: 4; fill: rgb(255,255,255); fill-rule: nonzero; opacity: 1;" vector-effect="non-scaling-stroke"  transform=" translate(-256, -239.41)" d="M 169.209772 184.531136 C 217.142772 137.600733 294.857519 137.600733 342.790517 184.531136 L 348.559331 190.179285 C 350.955981 192.525805 350.955981 196.330266 348.559331 198.676787 L 328.82537 217.99798 C 327.627045 219.171241 325.684176 219.171241 324.485851 217.99798 L 316.547278 210.225455 C 283.10802 177.485633 228.89227 177.485633 195.453011 210.225455 L 186.951456 218.549188 C 185.75313 219.722448 183.810261 219.722448 182.611937 218.549188 L 162.877976 199.227995 C 160.481326 196.881474 160.481326 193.077013 162.877976 190.730493 L 169.209772 184.531136 Z M 383.602212 224.489406 L 401.165475 241.685365 C 403.562113 244.031874 403.562127 247.836312 401.165506 250.182837 L 321.971538 327.721548 C 319.574905 330.068086 315.689168 330.068112 313.292501 327.721609 C 313.292491 327.721599 313.29248 327.721588 313.29247 327.721578 L 257.08541 272.690097 C 256.486248 272.103467 255.514813 272.103467 254.915651 272.690097 C 254.915647 272.690101 254.915644 272.690105 254.91564 272.690108 L 198.709777 327.721548 C 196.313151 330.068092 192.427413 330.068131 190.030739 327.721634 C 190.030725 327.72162 190.03071 327.721606 190.030695 327.721591 L 110.834524 250.181849 C 108.437875 247.835329 108.437875 244.030868 110.834524 241.684348 L 128.397819 224.488418 C 130.794468 222.141898 134.680206 222.141898 137.076856 224.488418 L 193.284734 279.520668 C 193.883897 280.107298 194.85533 280.107298 195.454493 279.520668 C 195.454502 279.520659 195.45451 279.520651 195.454519 279.520644 L 251.65958 224.488418 C 254.056175 222.141844 257.941913 222.141756 260.338618 224.488222 C 260.338651 224.488255 260.338684 224.488288 260.338717 224.488321 L 316.546521 279.520644 C 317.145683 280.107273 318.117118 280.107273 318.71628 279.520644 L 374.923175 224.489406 C 377.319825 222.142885 381.205562 222.142885 383.602212 224.489406 Z" stroke-linecap="round" />
</g>
</g>
</g>
</svg>