<?xml version="1.0" encoding="UTF-8"?>
<svg id="Layer_1" data-name="Layer 1" xmlns="http://www.w3.org/2000/svg" viewBox="0 0 923.32 499.88">
  <defs>
    <style>
      .cls-1 {
        fill: #f5cc00;
        stroke-width: 0px;
      }
    </style>
  </defs>
  <g>
    <path class="cls-1" d="m272.69,376.57l123.3,123.31,103.88-103.88-123.31-123.3-103.88,103.88Zm123.3,92.28l-92.28-92.28,72.86-72.86,92.28,92.28-72.86,72.86Z"/>
    <path class="cls-1" d="m395.99,0l-146.05,146.06L103.88,0,0,103.88l146.06,146.06L0,395.99l103.88,103.88L499.88,103.88,395.99,0ZM31.03,103.88L103.88,31.03l170.26,170.26-72.93,72.78L31.03,103.88Zm0,292.11l130.54-130.54,24.11,24.11-61.19,61.06,15.51,15.51,61.22-61.04.2.2,103.88-103.88-.04-.04,29.06-28.97-.08-.08,32.19-32.12-15.51-15.51-61.23,61.1-24.22-24.22L395.99,31.02l72.86,72.86L103.88,468.85l-72.86-72.86Z"/>
  </g>
  <g>
    <path class="cls-1" d="m439.76,254.41c0-11.83,2.32-22.47,6.98-31.92,4.65-9.45,11.12-16.74,19.42-21.88,8.3-5.13,17.76-7.7,28.4-7.7,16.44,0,29.74,5.69,39.9,17.08,10.16,11.38,15.23,26.53,15.23,45.43v1.45c0,11.76-2.25,22.3-6.75,31.64-4.5,9.34-10.94,16.61-19.31,21.82-8.37,5.21-17.99,7.81-28.85,7.81-16.37,0-29.63-5.69-39.79-17.08-10.16-11.38-15.23-26.45-15.23-45.2v-1.45Zm20.76,2.46c0,13.39,3.11,24.15,9.32,32.26,6.21,8.11,14.53,12.17,24.94,12.17s18.82-4.11,25-12.33c6.18-8.22,9.26-19.74,9.26-34.54,0-13.24-3.14-23.98-9.43-32.2-6.29-8.22-14.64-12.33-25.06-12.33s-18.42,4.06-24.67,12.17c-6.25,8.11-9.38,19.72-9.38,34.82Z"/>
    <path class="cls-1" d="m615.03,165.9v29.24h22.55v15.96h-22.55v74.98c0,4.84,1,8.48,3.01,10.9,2.01,2.42,5.43,3.63,10.27,3.63,2.38,0,5.65-.45,9.82-1.34v16.64c-5.43,1.48-10.71,2.22-15.85,2.22-9.23,0-16.18-2.79-20.87-8.37-4.69-5.58-7.03-13.5-7.03-23.77v-74.89h-21.99v-15.96h21.99v-29.24h20.65Z"/>
    <path class="cls-1" d="m701.13,165.9v29.24h22.55v15.96h-22.55v74.98c0,4.84,1,8.48,3.01,10.9,2.01,2.42,5.43,3.63,10.27,3.63,2.38,0,5.65-.45,9.82-1.34v16.64c-5.43,1.48-10.71,2.22-15.85,2.22-9.23,0-16.18-2.79-20.87-8.37s-7.03-13.5-7.03-23.77v-74.89h-21.99v-15.96h21.99v-29.24h20.65Z"/>
    <path class="cls-1" d="m781.64,315.91h-20.65v-171.43h20.65v171.43Z"/>
    <path class="cls-1" d="m876.22,318.14c-16.37,0-29.69-5.37-39.96-16.13-10.27-10.75-15.4-25.13-15.4-43.14v-3.79c0-11.98,2.29-22.67,6.86-32.09,4.58-9.41,10.97-16.78,19.2-22.1,8.22-5.32,17.13-7.98,26.73-7.98,15.7,0,27.9,5.17,36.61,15.51,8.71,10.34,13.06,25.15,13.06,44.42v8.59h-81.81c.3,11.91,3.78,21.52,10.44,28.85,6.66,7.33,15.12,10.99,25.39,10.99,7.29,0,13.47-1.49,18.53-4.46,5.06-2.98,9.49-6.92,13.28-11.83l12.61,9.82c-10.12,15.55-25.3,23.33-45.54,23.33Zm-2.57-108.26c-8.33,0-15.33,3.03-20.98,9.1-5.66,6.07-9.15,14.56-10.49,25.5h60.49v-1.56c-.6-10.49-3.42-18.62-8.48-24.39-5.06-5.77-11.91-8.65-20.54-8.65Z"/>
  </g>
  <g>
    <path class="cls-1" d="m272.69,376.57l123.3,123.31,103.88-103.88-123.31-123.3-103.88,103.88Zm123.3,92.28l-92.28-92.28,72.86-72.86,92.28,92.28-72.86,72.86Z"/>
    <path class="cls-1" d="m395.99,0l-146.05,146.06L103.88,0,0,103.88l146.06,146.06L0,395.99l103.88,103.88L499.88,103.88,395.99,0ZM31.03,103.88L103.88,31.03l170.26,170.26-72.93,72.78L31.03,103.88Zm0,292.11l130.54-130.54,24.11,24.11-61.19,61.06,15.51,15.51,61.22-61.04.2.2,103.88-103.88-.04-.04,29.06-28.97-.08-.08,32.19-32.12-15.51-15.51-61.23,61.1-24.22-24.22L395.99,31.02l72.86,72.86L103.88,468.85l-72.86-72.86Z"/>
  </g>
  <g>
    <path class="cls-1" d="m439.76,254.41c0-11.83,2.32-22.47,6.98-31.92,4.65-9.45,11.12-16.74,19.42-21.88,8.3-5.13,17.76-7.7,28.4-7.7,16.44,0,29.74,5.69,39.9,17.08,10.16,11.38,15.23,26.53,15.23,45.43v1.45c0,11.76-2.25,22.3-6.75,31.64-4.5,9.34-10.94,16.61-19.31,21.82-8.37,5.21-17.99,7.81-28.85,7.81-16.37,0-29.63-5.69-39.79-17.08-10.16-11.38-15.23-26.45-15.23-45.2v-1.45Zm20.76,2.46c0,13.39,3.11,24.15,9.32,32.26,6.21,8.11,14.53,12.17,24.94,12.17s18.82-4.11,25-12.33c6.18-8.22,9.26-19.74,9.26-34.54,0-13.24-3.14-23.98-9.43-32.2-6.29-8.22-14.64-12.33-25.06-12.33s-18.42,4.06-24.67,12.17c-6.25,8.11-9.38,19.72-9.38,34.82Z"/>
    <path class="cls-1" d="m615.03,165.9v29.24h22.55v15.96h-22.55v74.98c0,4.84,1,8.48,3.01,10.9,2.01,2.42,5.43,3.63,10.27,3.63,2.38,0,5.65-.45,9.82-1.34v16.64c-5.43,1.48-10.71,2.22-15.85,2.22-9.23,0-16.18-2.79-20.87-8.37-4.69-5.58-7.03-13.5-7.03-23.77v-74.89h-21.99v-15.96h21.99v-29.24h20.65Z"/>
    <path class="cls-1" d="m701.13,165.9v29.24h22.55v15.96h-22.55v74.98c0,4.84,1,8.48,3.01,10.9,2.01,2.42,5.43,3.63,10.27,3.63,2.38,0,5.65-.45,9.82-1.34v16.64c-5.43,1.48-10.71,2.22-15.85,2.22-9.23,0-16.18-2.79-20.87-8.37s-7.03-13.5-7.03-23.77v-74.89h-21.99v-15.96h21.99v-29.24h20.65Z"/>
    <path class="cls-1" d="m781.64,315.91h-20.65v-171.43h20.65v171.43Z"/>
    <path class="cls-1" d="m876.22,318.14c-16.37,0-29.69-5.37-39.96-16.13-10.27-10.75-15.4-25.13-15.4-43.14v-3.79c0-11.98,2.29-22.67,6.86-32.09,4.58-9.41,10.97-16.78,19.2-22.1,8.22-5.32,17.13-7.98,26.73-7.98,15.7,0,27.9,5.17,36.61,15.51,8.71,10.34,13.06,25.15,13.06,44.42v8.59h-81.81c.3,11.91,3.78,21.52,10.44,28.85,6.66,7.33,15.12,10.99,25.39,10.99,7.29,0,13.47-1.49,18.53-4.46,5.06-2.98,9.49-6.92,13.28-11.83l12.61,9.82c-10.12,15.55-25.3,23.33-45.54,23.33Zm-2.57-108.26c-8.33,0-15.33,3.03-20.98,9.1-5.66,6.07-9.15,14.56-10.49,25.5h60.49v-1.56c-.6-10.49-3.42-18.62-8.48-24.39-5.06-5.77-11.91-8.65-20.54-8.65Z"/>
  </g>
</svg>